<svg xmlns="http://www.w3.org/2000/svg" viewBox="0 0 80 80" role="img" aria-label="Çiçek Lojistik">
  <defs>
    <linearGradient id="bg" x1="0" y1="0" x2="0" y2="1">
      <stop offset="0" stop-color="#ff1a10"/>
      <stop offset="1" stop-color="#b80500"/>
    </linearGradient>
  </defs>
  <circle cx="40" cy="40" r="38" fill="#0a0a0a"/>
  <circle cx="40" cy="40" r="34" fill="url(#bg)"/>
  <circle cx="40" cy="40" r="34" fill="none" stroke="#ffffff" stroke-width="1" opacity="0.25"/>
  <g>
    <rect x="10" y="28" width="28" height="22" rx="2" fill="#ffffff"/>
    <rect x="13" y="31" width="22" height="3" fill="#e10600" opacity="0.9"/>
    <path d="M38 34 H50 L58 42 V50 H38 Z" fill="#ffffff"/>
    <rect x="41" y="36" width="9" height="5.5" rx="0.8" fill="#1a1a1a"/>
    <rect x="51" y="44" width="5" height="3" rx="0.5" fill="#ffcc00"/>
    <rect x="10" y="50" width="48" height="2" fill="#ffffff"/>
    <circle cx="19" cy="54" r="5.5" fill="#0a0a0a"/>
    <circle cx="19" cy="54" r="2" fill="#ffffff"/>
    <circle cx="48" cy="54" r="5.5" fill="#0a0a0a"/>
    <circle cx="48" cy="54" r="2" fill="#ffffff"/>
  </g>
  <path d="M6 62 H74" stroke="#ffffff" stroke-width="1.2" stroke-linecap="round" stroke-dasharray="3 4" opacity="0.55"/>
  <text x="40" y="22" text-anchor="middle" font-family="Segoe UI, Arial, sans-serif" font-size="8" font-weight="900" fill="#ffffff" letter-spacing="1">ÇİÇEK</text>
</svg>
